<svg width="10" height="10" viewBox="0 0 10 10" fill="none" xmlns="http://www.w3.org/2000/svg">
<path fill-rule="evenodd" clip-rule="evenodd" d="M4.99983 5.70705L1.62996 9.07692L0.922852 8.36981L4.29272 4.99994L0.922867 1.63009L1.62997 0.922979L4.99983 4.29283L8.36969 0.922974L9.07679 1.63008L5.70693 4.99994L9.07681 8.36981L8.3697 9.07692L4.99983 5.70705Z" fill="#606060"/>
<path d="M1.62996 9.07692L1.2764 9.43047L1.62996 9.78402L1.98351 9.43047L1.62996 9.07692ZM4.99983 5.70705L5.35338 5.35349L4.99983 4.99994L4.64627 5.35349L4.99983 5.70705ZM0.922852 8.36981L0.569298 8.01626L0.215745 8.36981L0.569298 8.72336L0.922852 8.36981ZM4.29272 4.99994L4.64627 5.35349L4.99983 4.99994L4.64627 4.64639L4.29272 4.99994ZM0.922867 1.63009L0.569314 1.27653L0.21576 1.63009L0.569314 1.98364L0.922867 1.63009ZM1.62997 0.922979L1.98353 0.569426L1.62997 0.215872L1.27642 0.569426L1.62997 0.922979ZM4.99983 4.29283L4.64627 4.64639L4.99983 4.99994L5.35338 4.64639L4.99983 4.29283ZM8.36969 0.922974L8.72324 0.56942L8.36969 0.215867L8.01613 0.56942L8.36969 0.922974ZM9.07679 1.63008L9.43035 1.98363L9.7839 1.63008L9.43035 1.27653L9.07679 1.63008ZM5.70693 4.99994L5.35338 4.64639L4.99983 4.99994L5.35338 5.35349L5.70693 4.99994ZM9.07681 8.36981L9.43036 8.72337L9.78392 8.36981L9.43036 8.01626L9.07681 8.36981ZM8.3697 9.07692L8.01615 9.43047L8.3697 9.78403L8.72326 9.43047L8.3697 9.07692ZM1.98351 9.43047L5.35338 6.0606L4.64627 5.35349L1.2764 8.72336L1.98351 9.43047ZM0.569298 8.72336L1.2764 9.43047L1.98351 8.72336L1.27641 8.01626L0.569298 8.72336ZM3.93917 4.64639L0.569298 8.01626L1.2764 8.72336L4.64627 5.35349L3.93917 4.64639ZM4.64627 4.64639L1.27642 1.27653L0.569314 1.98364L3.93917 5.35349L4.64627 4.64639ZM1.27642 1.98364L1.98353 1.27653L1.27642 0.569426L0.569314 1.27653L1.27642 1.98364ZM1.27642 1.27653L4.64627 4.64639L5.35338 3.93928L1.98353 0.569426L1.27642 1.27653ZM8.01613 0.56942L4.64627 3.93928L5.35338 4.64639L8.72324 1.27653L8.01613 0.56942ZM9.43035 1.27653L8.72324 0.56942L8.01613 1.27653L8.72324 1.98363L9.43035 1.27653ZM6.06049 5.35349L9.43035 1.98363L8.72324 1.27653L5.35338 4.64639L6.06049 5.35349ZM5.35338 5.35349L8.72326 8.72337L9.43036 8.01626L6.06049 4.64639L5.35338 5.35349ZM8.72326 8.01626L8.01615 8.72337L8.72326 9.43047L9.43036 8.72337L8.72326 8.01626ZM8.72326 8.72337L5.35338 5.35349L4.64627 6.0606L8.01615 9.43047L8.72326 8.72337Z" fill="#606060"/>
</svg>
