<svg width="10" height="10" viewBox="0 0 10 10" fill="none" xmlns="http://www.w3.org/2000/svg">
<mask id="path-1-outside-1_163_31979" maskUnits="userSpaceOnUse" x="0" y="0" width="10" height="10" fill="black">
<rect fill="white" width="10" height="10"/>
<path fill-rule="evenodd" clip-rule="evenodd" d="M4.25 5.75V9H5.75V5.75H9V4.25H5.75V1H4.25V4.25H1V5.75H4.25Z"/>
</mask>
<path fill-rule="evenodd" clip-rule="evenodd" d="M4.25 5.75V9H5.75V5.75H9V4.25H5.75V1H4.25V4.25H1V5.75H4.25Z" fill="white"/>
<path d="M4.25 9H4.05V9.2H4.25V9ZM4.25 5.75H4.45V5.55H4.25V5.75ZM5.75 9V9.2H5.95V9H5.75ZM5.75 5.75V5.55H5.55V5.75H5.75ZM9 5.75V5.95H9.2V5.75H9ZM9 4.25H9.2V4.05H9V4.25ZM5.75 4.25H5.55V4.45H5.75V4.25ZM5.75 1H5.95V0.8H5.75V1ZM4.25 1V0.8H4.05V1H4.25ZM4.25 4.25V4.45H4.45V4.25H4.25ZM1 4.25V4.05H0.8V4.25H1ZM1 5.75H0.8V5.95H1V5.75ZM4.45 9V5.75H4.05V9H4.45ZM5.75 8.8H4.25V9.2H5.75V8.8ZM5.55 5.75V9H5.95V5.75H5.55ZM9 5.55H5.75V5.95H9V5.55ZM8.8 4.25V5.75H9.2V4.25H8.8ZM5.75 4.45H9V4.05H5.75V4.45ZM5.55 1V4.25H5.95V1H5.55ZM4.25 1.2H5.75V0.8H4.25V1.2ZM4.45 4.25V1H4.05V4.25H4.45ZM1 4.45H4.25V4.05H1V4.45ZM1.2 5.75V4.25H0.8V5.75H1.2ZM4.25 5.55H1V5.95H4.25V5.55Z" fill="white" mask="url(#path-1-outside-1_163_31979)"/>
</svg>
