<svg width="14" height="14" viewBox="0 0 14 14" fill="none" xmlns="http://www.w3.org/2000/svg">
<path d="M7 0C3.13425 0 0 3.13425 0 7C0 10.8657 3.13425 14 7 14C10.8657 14 14 10.8657 14 7C14 3.13425 10.8657 0 7 0ZM11.5226 10.6779C11.3703 10.3361 11.0623 10.0998 10.4312 9.954C9.09358 9.64542 7.84817 9.37475 8.45192 8.23608C10.2865 4.76992 8.93783 2.91667 7 2.91667C5.02367 2.91667 3.70767 4.84108 5.54808 8.23608C6.16992 9.38175 4.87842 9.65183 3.56883 9.954C2.9365 10.0998 2.63083 10.3378 2.47975 10.6808C1.66017 9.67575 1.16667 8.39475 1.16667 7C1.16667 3.7835 3.7835 1.16667 7 1.16667C10.2165 1.16667 12.8333 3.7835 12.8333 7C12.8333 8.39358 12.3404 9.67342 11.5226 10.6779Z" fill="#656565"/>
</svg>
