<svg width="14" height="15" viewBox="0 0 14 15" fill="none" xmlns="http://www.w3.org/2000/svg">
<path d="M14 8.77575V6.22425C12.747 5.77742 12.4098 5.75642 12.2342 5.33233C12.0575 4.90708 12.2827 4.65042 12.852 3.45225L11.0477 1.648C9.86592 2.20975 9.59642 2.44367 9.16708 2.26575C8.743 2.08958 8.71908 1.74717 8.27633 0.5H5.72425C5.27858 1.75067 5.25758 2.08958 4.83233 2.26575C4.39367 2.44833 4.13058 2.20742 2.95225 1.648L1.148 3.45225C1.71792 4.651 1.9425 4.9065 1.76575 5.33292C1.58958 5.757 1.25183 5.77858 0 6.22425V8.77633C1.24775 9.21967 1.58958 9.243 1.76575 9.66767C1.94308 10.0958 1.7185 10.3484 1.148 11.5477L2.95225 13.352C4.11833 12.7978 4.39308 12.5511 4.83233 12.7342C5.257 12.9104 5.278 13.2476 5.72425 14.5H8.27575C8.71792 13.2569 8.74183 12.9116 9.17233 12.7319C9.60692 12.5522 9.86417 12.7897 11.0477 13.3514L12.852 11.5472C12.2832 10.3513 12.0575 10.0935 12.2342 9.66708C12.4092 9.24358 12.7476 9.222 14 8.77575ZM11.1562 9.22142C10.8197 10.0346 11.1166 10.6552 11.4409 11.3086L10.8086 11.9409C10.171 11.6242 9.548 11.3132 8.72433 11.6551C7.91 11.994 7.68017 12.6427 7.448 13.3333H6.55317C6.321 12.6421 6.09175 11.9934 5.27975 11.6562C4.452 11.3132 3.81733 11.63 3.192 11.9409L2.56025 11.3086C2.88517 10.6564 3.18208 10.0369 2.84433 9.22025C2.50658 8.40883 1.85792 8.17958 1.16667 7.94742V7.05317C1.85792 6.821 2.50658 6.59175 2.84375 5.77917C3.18092 4.966 2.88342 4.34475 2.55908 3.69142L3.19142 3.05908C3.82258 3.37292 4.45258 3.68733 5.27975 3.34375C6.09175 3.00717 6.321 2.35792 6.55317 1.66667H7.448C7.68017 2.35792 7.91 3.00658 8.722 3.34375C9.54975 3.68675 10.1838 3.37 10.8097 3.05908L11.4421 3.69142C11.1177 4.34533 10.8208 4.96717 11.1574 5.77975C11.494 6.59117 12.1427 6.82042 12.8345 7.05317V7.948C12.1415 8.18017 11.4917 8.40942 11.1562 9.22142ZM7 5.75C7.96483 5.75 8.75 6.53517 8.75 7.5C8.75 8.46483 7.96483 9.25 7 9.25C6.03517 9.25 5.25 8.46483 5.25 7.5C5.25 6.53517 6.03517 5.75 7 5.75ZM7 4.58333C5.38883 4.58333 4.08333 5.88883 4.08333 7.5C4.08333 9.11117 5.38883 10.4167 7 10.4167C8.61117 10.4167 9.91667 9.11117 9.91667 7.5C9.91667 5.88883 8.61117 4.58333 7 4.58333Z" fill="#333333"/>
</svg>
